# xmcd
#
# Track frame offsets:
#	150
#	5193
#	15610
#	31091
#	40438
#	54754
#	68931
#	80790
#	94335
#	111437
#	125797
#	137767
#	148319
#	161505
#	171626
#	180779
#	193533
#	203100
#	212752
#	228160
#	241882
#	259185
#	269504
#	281069
#
# Disc length: 3862 seconds
#
# Revision: 0
# Processed by: cddbd v1.5.1PL2 Copyright (c) Steve Scherf et al.
# Submitted via: dBpowerAMP V4.0
#
DISCID=6a0f1418
DTITLE=Aiken Always Patsy Cline - Always Patsy Cline Soundtrack
DYEAR=2004
DGENRE=Country
TTITLE0=Band Intro
TTITLE1=Honky Tonk Merry-Go Round
TTITLE2=Back in Baby's Arms - Anytime
TTITLE3=Walkin' After Midnight
TTITLE4=I Fall To Pieces
TTITLE5=Honky Tonk Angels
TTITLE6=Come On In
TTITLE7=Your Cheatin' Heart
TTITLE8=Stupid Cupid
TTITLE9=You Belong To Me
TTITLE10=I Love You Honey
TTITLE11=Lovesick Blues
TTITLE12=Sweet Dreams
TTITLE13=She's Got You
TTITLE14=Three Cigarettes
TTITLE15=Crazy
TTITLE16=Seven Lonely Days
TTITLE17=If I Could See The World
TTITLE18=Blue Moon of Kentucky
TTITLE19=Gotta Lotta Rhythm - Shake Rattle and Roll
TTITLE20=Faded Love
TTITLE21=True Love
TTITLE22=If You've Got Leavin' On Your Mind
TTITLE23=Bill Bailey
EXTD=
EXTT0=
EXTT1=
EXTT2=
EXTT3=
EXTT4=
EXTT5=
EXTT6=
EXTT7=
EXTT8=
EXTT9=
EXTT10=
EXTT11=
EXTT12=
EXTT13=
EXTT14=
EXTT15=
EXTT16=
EXTT17=
EXTT18=
EXTT19=
EXTT20=
EXTT21=
EXTT22=
EXTT23=
PLAYORDER=
